<?xml version="1.0" encoding="utf-8"?>
<!-- Generator: Adobe Illustrator 17.0.0, SVG Export Plug-In . SVG Version: 6.00 Build 0)  -->
<!DOCTYPE svg PUBLIC "-//W3C//DTD SVG 1.1//EN" "http://www.w3.org/Graphics/SVG/1.1/DTD/svg11.dtd">
<svg version="1.1" id="图层_1" xmlns="http://www.w3.org/2000/svg" xmlns:xlink="http://www.w3.org/1999/xlink" x="0px" y="0px"
	 width="667.208px" height="119.82px" viewBox="-818.901 904.886 667.208 119.82"
	 enable-background="new -818.901 904.886 667.208 119.82" xml:space="preserve">
<g>
	<g>
		<g>
			<path fill="#FFFFFF" d="M-777.905,945.418c1.873,0,3.715,0.146,5.507,0.431c6.323-23.591,27.845-40.962,53.429-40.962
				c20.455,0,38.309,11.105,47.878,27.608c-4.237,1.969-8.101,4.694-11.39,8.06c18.787-12.247,51.335-1.9,50.354,21.792
				c-0.648,15.732-20.995,14.636-32.024,12.804c-26.979-4.495-53.479-19.924-81.08-19.876c-26.917,0.05-51.498,13.369-66.448,34.584
				c-0.828-2.986-1.275-6.136-1.275-9.39C-812.954,961.109-797.26,945.418-777.905,945.418"/>
		</g>
	</g>
	<g>
		<linearGradient id="SVGID_1_" gradientUnits="userSpaceOnUse" x1="-818.9009" y1="986.4626" x2="-618.9009" y2="986.4626">
			<stop  offset="0" style="stop-color:#FFA426"/>
			<stop  offset="1" style="stop-color:#FFC343"/>
		</linearGradient>
		<path fill="url(#SVGID_1_)" d="M-627.986,962.518c0.22-5.395-2.435-10.452-6.067-14.299c13.28,4.565,18.778,20.134,12.66,31.318
			c-28.409,48.515-71.907-7.029-131.104,0.935c24.983,1.385,49.149,9.172,70.204,22.574c-38.082,56.752-93.618-19.5-136.609,10.723
			c10.234-32.823,40.527-54.295,73.678-54.354c25.837-0.045,54.395,15.488,80.4,19.816
			C-651.242,981.495-628.773,981.607-627.986,962.518"/>
	</g>
</g>
<g>
	<path fill="#FFFFFF" d="M-309.984,1004.068c-0.279-4.651-2.703-6.941-7.411-6.941h-21.154v-18.139h18.957
		c4.692-0.272,7.269-2.697,7.846-7.41c-0.578-4.707-3.154-7.131-7.876-7.411l-18.927,0.001v-17.26h20.275
		c4.697-0.272,7.131-2.706,7.411-7.439c-0.279-4.371-2.713-6.662-7.441-6.942l-28.095,0.001c-5.282,0-7.85,2.999-7.85,9.168v61.963
		c0.274,4.999,2.851,7.576,7.877,7.851l28.962-0.001C-312.692,1011.23-310.263,1008.796-309.984,1004.068z"/>
	<path fill="#FFFFFF" d="M-256.515,931.208c-23.559,1.729-36.415,15.47-38.145,40.844c1.729,25.005,14.577,38.45,38.184,39.896
		c16.292-0.291,24.696-4.27,24.978-11.823c-0.561-4.671-2.853-7.114-7.005-7.393c-1.052,0.001-2.906,0.578-5.477,1.716
		c-4.427,2.068-8.638,3.119-12.507,3.119c-13.448-0.896-20.702-9.334-21.593-25.081c0.891-16.387,8.145-25.121,21.56-26.016
		c0.003,0,0.006,0,0.009,0c3.868,0,7.914,0.749,12.058,2.226c2.282,0.856,4.145,1.289,5.545,1.289
		c3.809-0.269,5.813-2.56,6.093-7.002C-233.38,936.051-241.354,932.066-256.515,931.208z"/>
	<path fill="#FFFFFF" d="M-176.71,931.208c-23.559,1.729-36.415,15.47-38.145,40.844c1.729,25.005,14.577,38.45,38.184,39.896
		c16.292-0.291,24.696-4.27,24.978-11.823c-0.561-4.671-2.853-7.114-7.005-7.393c-1.052,0.001-2.906,0.578-5.477,1.716
		c-4.427,2.068-8.638,3.119-12.507,3.119c-13.448-0.896-20.702-9.334-21.593-25.081c0.891-16.387,8.145-25.121,21.56-26.016
		c0.003,0,0.006,0,0.009,0c3.868,0,7.914,0.749,12.058,2.226c2.282,0.856,4.145,1.289,5.545,1.289
		c3.809-0.269,5.813-2.56,6.093-7.002C-153.575,936.051-161.549,932.066-176.71,931.208z"/>
	<path fill="#FFFFFF" d="M-380.075,1011.507c4.731-0.278,7.305-2.722,7.868-7.469c0.263-1.606-0.399-3.036-2.021-4.392
		l-19.546-21.357l0.874-0.171c13.336-2.61,19.96-9.354,20.25-20.616c0-16.802-9.036-24.976-27.625-24.976h-19.775
		c-5.282,0-7.85,2.711-7.85,8.289v63.281c0.272,4.978,2.84,7.41,7.85,7.41c5.002,0,7.57-2.433,7.851-7.438l-0.001-25.972
		l25.934,31.395C-384.947,1010.815-382.853,1011.505-380.075,1011.507z M-411.701,967.683h-0.5v-20.775h11.926
		c7.03,0.308,10.739,3.868,11.046,10.585c-0.309,6.478-4.018,9.891-11.025,10.19H-411.701z"/>
	<path fill="#FFFFFF" d="M-533.577,958.798c-1.164-16.49-10.355-25.106-28.099-26.272l-20.182,0.001c-4.998,0.28-7.575,3-7.85,8.314
		l0,63.256c0.272,4.978,2.84,7.41,7.85,7.41c5.002,0,7.57-2.433,7.851-7.438l-0.001-18.929h12.805
		C-544.031,983.999-534.725,975.136-533.577,958.798z M-573.508,971.199h-0.5v-24.73h11.926c7.614,0.307,11.62,4.46,11.925,12.346
		c-0.612,7.633-4.61,11.779-11.884,12.383L-573.508,971.199z"/>
	<path fill="#FFFFFF" d="M-501.233,979.525l-0.001-39.588c-0.281-5.289-2.858-8.009-7.877-8.29c-4.97,0.281-7.547,3.001-7.822,8.315
		l0,40.404c1.722,19.494,13.086,30.133,33.777,31.579c20.4-1.446,31.617-12.085,33.34-31.623l-0.002-40.386
		c-0.281-5.289-2.858-8.009-7.877-8.29c-4.97,0.281-7.547,3.001-7.822,8.315l0,39.525c-0.898,11.692-6.818,18.057-17.597,18.955
		C-494.264,997.847-500.337,991.482-501.233,979.525z"/>
</g>
</svg>
