<?xml version="1.0" encoding="utf-8"?>
<!-- Generator: Adobe Illustrator 17.0.0, SVG Export Plug-In . SVG Version: 6.00 Build 0)  -->
<!DOCTYPE svg PUBLIC "-//W3C//DTD SVG 1.1//EN" "http://www.w3.org/Graphics/SVG/1.1/DTD/svg11.dtd">
<svg version="1.1" id="e37c00f5-ff96-45aa-87ea-1a24b78ba7bd"
	 xmlns="http://www.w3.org/2000/svg" xmlns:xlink="http://www.w3.org/1999/xlink" x="0px" y="0px" width="1247.173px"
	 height="873.979px" viewBox="-1447.534 23.733 1247.173 873.979" enable-background="new -1447.534 23.733 1247.173 873.979"
	 xml:space="preserve">
<g>
	<circle fill="#C4C4C4" fill-opacity="0.17" cx="-1399.146" cy="379.628" r="5.627"/>
	<circle fill="#C4C4C4" fill-opacity="0.17" cx="-1435.156" cy="516.916" r="12.378"/>
	<path fill="#C4C4C4" fill-opacity="0.23" d="M-1298.993,175.946h200.306c2.486,0,4.501,2.015,4.501,4.501l0,0
		c0,2.486-2.015,4.501-4.501,4.501h-200.306c-2.486,0-4.501-2.015-4.501-4.501l0,0
		C-1303.494,177.961-1301.479,175.946-1298.993,175.946z"/>
	<path fill="#C4C4C4" fill-opacity="0.23" d="M-1373.264,261.47h87.774c2.486,0,4.501,2.015,4.501,4.501l0,0
		c0,2.486-2.015,4.501-4.501,4.501h-87.774c-2.486,0-4.501-2.015-4.501-4.501l0,0C-1377.765,263.485-1375.75,261.47-1373.264,261.47
		z"/>
	<path fill="#C4C4C4" fill-opacity="0.23" d="M-1400.271,475.279h137.288c2.486,0,4.501,2.015,4.501,4.501l0,0
		c0,2.486-2.015,4.501-4.501,4.501h-137.288c-2.486,0-4.501-2.015-4.501-4.501l0,0
		C-1404.772,477.294-1402.757,475.279-1400.271,475.279z"/>
	<path fill="#C4C4C4" fill-opacity="0.23" d="M-1400.271,261.47h9.003c2.486,0,4.501,2.015,4.501,4.501l0,0
		c0,2.486-2.015,4.501-4.501,4.501h-9.003c-2.486,0-4.501-2.015-4.501-4.501l0,0C-1404.772,263.485-1402.757,261.47-1400.271,261.47
		z"/>
	<path fill="#7A6FD3" d="M-1324.002,178.8c0.462,0,0.851,0.158,1.166,0.473c0.315,0.294,0.473,0.672,0.473,1.134
		s-0.157,0.851-0.473,1.166c-0.315,0.315-0.704,0.473-1.166,0.473h-4.411v4.443c0,0.462-0.157,0.851-0.473,1.166
		c-0.315,0.294-0.704,0.441-1.166,0.441s-0.851-0.147-1.166-0.441c-0.315-0.315-0.473-0.704-0.473-1.166v-4.443h-4.411
		c-0.462,0-0.851-0.158-1.166-0.473c-0.315-0.315-0.473-0.704-0.473-1.166s0.158-0.84,0.473-1.134
		c0.315-0.315,0.704-0.473,1.166-0.473h4.411v-4.443c0-0.462,0.158-0.851,0.473-1.166c0.315-0.315,0.704-0.473,1.166-0.473
		s0.851,0.158,1.166,0.473c0.315,0.315,0.473,0.704,0.473,1.166v4.443H-1324.002z"/>
	<path fill="#7A6FD3" d="M-1218.907,132.41c0.342,0.396,0.513,0.81,0.513,1.242c0,0.522-0.207,0.981-0.621,1.377
		c-0.396,0.378-0.855,0.567-1.377,0.567c-0.54,0-0.999-0.225-1.377-0.675l-5.077-6.212l-5.131,6.212
		c-0.396,0.45-0.855,0.675-1.377,0.675c-0.504,0-0.963-0.189-1.377-0.567c-0.396-0.396-0.594-0.855-0.594-1.377
		c0-0.45,0.162-0.864,0.486-1.242l5.536-6.59l-5.348-6.401c-0.342-0.396-0.513-0.81-0.513-1.242c0-0.522,0.198-0.972,0.594-1.35
		c0.414-0.396,0.873-0.594,1.377-0.594c0.54,0,1.008,0.234,1.404,0.702l4.942,5.969l4.888-5.969
		c0.396-0.468,0.864-0.702,1.404-0.702c0.504,0,0.954,0.198,1.35,0.594c0.414,0.378,0.621,0.828,0.621,1.35
		c0,0.45-0.162,0.864-0.486,1.242l-5.348,6.401L-1218.907,132.41z"/>
	<path fill="#8A7FE3" d="M-1294.366,317.969c0.228,0.263,0.342,0.54,0.342,0.828c0,0.349-0.138,0.655-0.414,0.918
		c-0.264,0.252-0.57,0.378-0.918,0.378c-0.36,0-0.666-0.151-0.918-0.45l-3.385-4.141l-3.421,4.141
		c-0.264,0.299-0.57,0.45-0.918,0.45c-0.336,0-0.642-0.126-0.918-0.378c-0.264-0.263-0.396-0.569-0.396-0.918
		c0-0.299,0.108-0.576,0.324-0.828l3.691-4.393l-3.565-4.267c-0.228-0.263-0.342-0.54-0.342-0.828c0-0.349,0.132-0.648,0.396-0.9
		c0.276-0.263,0.582-0.396,0.918-0.396c0.36,0,0.672,0.155,0.936,0.468l3.295,3.979l3.259-3.979
		c0.264-0.313,0.576-0.468,0.936-0.468c0.336,0,0.636,0.133,0.9,0.396c0.276,0.252,0.414,0.551,0.414,0.9
		c0,0.299-0.108,0.576-0.324,0.828l-3.565,4.267L-1294.366,317.969z"/>
</g>
<title>connected world</title>
<path fill="#FFFFFF" fill-opacity="0.03" d="M-293.001,236.185C-426.544,50.355-708.646-25.026-986.084,56.161
	c-146.673,42.921-288.094,128.92-358.178,295.441c-125.283,297.675,137.765,392.745,309.77,423.045
	c83.172,14.651,161.507,39.263,233.089,72.771c128.783,60.284,356.739,113.702,528.632-137.409
	C-148.182,528.003-204.049,359.966-293.001,236.185z"/>
<path fill="#3774E4" d="M-1058.268,249.366c-0.374-2.953-1.129-5.846-2.248-8.605c-0.288-1.055-1.007-1.94-1.98-2.439
	c-0.643-0.167-1.318-0.175-1.965-0.022l-10.087,1.544c-0.844,0.039-1.653,0.353-2.302,0.894c-1.314,1.382-0.02,3.607-0.06,5.513
	c-0.045,2.143-1.95,3.883-4.015,4.459c-2.108,0.426-4.283,0.399-6.38-0.079l-14.105-2.192c4.154-1.326,7.852-3.794,10.671-7.121
	c1.856-2.199,2.844-6.304,0.161-7.345c-0.797-0.219-1.628-0.285-2.45-0.197c-6.391,0.05-11.419-5.286-17.402-7.533
	c-7.855-2.76-16.593-0.155-21.655,6.455l7.514,0.362c0.707-0.039,1.408,0.148,2.001,0.534c1.647,1.353-0.401,3.952-0.169,6.07
	c0.301,2.752,3.956,3.34,6.711,3.619c2.755,0.278,6.25,2.517,4.925,4.948c-13.847,4.769-27.937-9.323-42.479-7.588
	c-3.681,0.439-7.156,1.885-10.749,2.794c-21.951,5.554-44.644-9.264-67.068-6.126c-4.985,0.85-9.885,2.142-14.64,3.861
	c-3.052,1.002-6.235,2.085-8.453,4.409c-2.218,2.324-3.062,6.298-0.961,8.729c-5.79,0.477-11.619-0.077-17.216-1.636
	c3.083,1.714,4.984,4.973,4.959,8.5c-9.041,1.474-17.842,4.158-26.167,7.979c1.554,2.584,3.369,5.001,5.416,7.215l-11.445,7.353
	c3.867,0.974,5.866,6.247,3.617,9.54c4.009-1.784,6.494-6.398,10.782-7.333c2.809-0.613,5.667,0.536,8.332,1.616
	c2.665,1.079,5.593,2.126,8.352,1.316s4.793-4.387,3.04-6.666c11.79-3.44,23.975-5.344,36.253-5.664
	c0.947-0.119,1.908,0.063,2.746,0.521c1.598,1.109,1.178,3.504,1.092,5.447s1.428,4.497,3.165,3.621
	c-2.043,1.772-0.297,5.108,1.664,6.971c1.96,1.863,4.323,4.434,3.123,6.858c-0.313,0.633-0.844,1.139-1.146,1.777
	c-0.89,1.884,0.523,4.081,2.189,5.332c1.666,1.251,3.707,2.126,4.864,3.858s0.632,4.765-1.438,5.007l-5.882-7.469
	c-2.01,2.084-3.387,4.695-3.974,7.53c6.238,5.099,7.176,15.478,1.954,21.613c-2.669,3.135-6.464,5.04-9.776,7.486
	s-6.377,5.928-6.369,10.045c0.014,7.113-0.567,13.721,2.099,20.316c4.915,12.16,10.59,23.999,16.99,35.447
	c1.681,3.006,3.853,6.301,7.258,6.819c-4.303-10.476-8.177-21.115-11.621-31.917c2.243,0.009,4.836,0.187,6.151,2.004
	c1.089,1.505,0.855,3.551,1.193,5.378c0.43,1.77,1.148,3.457,2.124,4.994l20.55,36.605c1.703,3.034,3.658,6.292,6.913,7.521
	c2.082,0.786,4.49,0.638,6.406,1.769c1.502,0.887,2.513,2.46,4.044,3.296c4.329,2.361,10.349-2.167,14.394,0.652
	c1.157,0.806,1.893,2.087,2.958,3.01c3.736,3.236,9.865,1.071,14.179,3.485c2.78,1.556,4.22,4.667,5.703,7.486
	c3.714,7.062,9.723,13.981,17.683,14.543c2.5,0.177,5.054-0.297,7.498,0.259c2.444,0.556,4.85,2.689,4.457,5.164
	c-0.673,4.244,1.424,8.891,0.861,13.151c-1.026,7.759-12.032,11.169-12.978,18.939c-0.207,1.701,0.117,3.457-0.288,5.122
	c-0.496,2.041-2.029,3.702-2.574,5.731c-1.032,3.844,1.722,7.67,4.748,10.256s6.635,4.816,8.289,8.437
	c1.748,3.827,0.89,8.289,1.458,12.457c1.241,9.1,9.102,15.847,17.191,20.197c2.465,1.325,5.111,2.608,6.706,4.908
	c2.082,3.001,1.875,6.957,2.57,10.543c1.703,8.782,9.095,16.017,9.305,24.96c0.149,6.356-3.384,12.122-5.495,18.12
	c-4.004,11.627-2.744,24.422,3.451,35.046c1.579,2.666,3.467,5.18,4.584,8.07c1.993,5.158,1.346,11.02,3.184,16.235
	c2.43,6.895,9.106,12.589,8.467,19.872c3.031,6.294,9.724,9.387,16.454,11.26l12.062,3.357c2.309,0.643,4.723,1.291,7.074,0.825
	s4.596-2.418,4.535-4.815c-5.915-1.334-12.019-2.752-16.895-6.357s-8.216-10.023-6.366-15.797c0.858-2.677,2.683-5.769,0.948-7.982
	c-0.993-1.267-2.81-1.598-3.931-2.753c-1.748-1.803-1.147-4.831,0.109-7.005s3.073-4.116,3.579-6.576
	c0.524-2.817-0.758-5.664-3.216-7.138c2.236-0.844,4.27-2.149,5.97-3.831c1.57-1.793,2.295-4.557,1.06-6.595
	c3.667,0.465,7.997,0.693,10.405-2.113c1.922-2.24,1.791-5.59,1.031-8.442s-2.044-5.624-2.084-8.575
	c8.46,0.401,16.939,0.113,25.353-0.86c-1.217-4.098-3.981-7.56-7.708-9.654c3.811-0.645,7.282-5.207,8.486-8.879
	c1.204-3.672,0.897-7.673,0.153-11.465c-0.286-0.976-0.325-2.008-0.114-3.004c0.429-1.367,1.772-2.202,3.015-2.916l18.914-10.863
	c1.129-0.565,2.152-1.321,3.025-2.233c1.982-2.328,1.688-5.841,0.673-8.725c-1.015-2.884-2.64-5.595-3.031-8.627
	c-1.169-9.068,8.538-15.573,11.813-24.109c1.286-3.35,1.548-6.991,1.796-10.57c0.267-3.844,0.287-8.31-2.665-10.787
	c-2.829-2.375-7.25-1.845-10.211-4.054c-2.714-2.025-3.651-5.958-6.616-7.594c-2.693-1.485-6.07-0.541-9.065-1.239
	c-5.274-1.23-8.592-7.308-13.978-7.871c-3.039-0.318-6.478,1.168-8.969-0.602c-2.195-1.559-2.283-4.694-2.7-7.353
	c-1.499-8.466-8.114-15.101-16.575-16.628c-3.133-0.502-6.544-0.312-9.209-2.033c-2.699-1.744-3.937-5.008-6.057-7.422
	c-3.417-3.891-8.798-5.274-13.84-6.459l-20.505-4.821c-3.64-0.856-8.332-1.31-10.286,1.879c-0.578,1.214-0.988,2.502-1.217,3.827
	c-1.502,4.918-6.003,8.306-11.144,8.388c-1.719-2.931-4.503-5.086-7.772-6.013c-2.079-0.579-4.305-0.644-6.288-1.496
	c-4.384-2.14-6.203-7.428-4.063-11.812c0.073-0.149,0.15-0.296,0.231-0.441c2.43-4.327,1.661-9.746-1.879-13.225
	c-3.487-3.131-8.531-3.887-13.207-3.574c-1.225-2.672,0.823-5.687,3.03-7.629s4.886-3.851,5.366-6.751
	c0.756-4.561-5.064-8.026-9.483-6.666s-7.24,5.652-9.104,9.883c-1.07,2.428-1.979,4.984-3.667,7.031
	c-1.688,2.047-4.405,3.513-6.975,2.856c-3.639-0.93-5.044-5.253-5.849-8.922c-1.08-4.922-2.167-9.912-1.941-14.946
	c0.226-5.034,1.923-10.203,5.635-13.61c6.049-5.553,15.328-5.009,23.491-4.123c-1.929-2.173-1.452-5.835,0.612-7.881
	c2.212-1.965,5.25-2.712,8.121-1.995c2.46,0.512,4.676,1.837,6.291,3.762c2.32,2.828,2.979,6.647,4.733,9.857
	s5.696,5.948,8.923,4.226c2.787-1.488,3.23-5.353,2.536-8.435s-2.167-6.08-1.916-9.229c0.479-6.01,6.709-9.627,12.206-12.102
	c5.497-2.475,11.792-5.803,12.663-11.769c0.03-1.168,0.25-2.323,0.652-3.42c0.609-0.969,1.457-1.766,2.461-2.315
	c16.044-10.603,32.355-21.335,50.692-27.129c0.954-0.301,1.066,0.034,2.038-0.203c1.361-0.786,0.459-2.962-0.846-3.838
	c-1.305-0.876-3.048-1.549-3.379-3.085c-0.243-1.129,0.422-2.238,0.595-3.381c0.425-2.807-2.933-5.399-5.541-4.276
	c-1.473-1.951,1.442-4.217,3.798-4.866c7.077-1.948,14.342-3.134,21.67-3.54c0.846-0.134,1.712,0.013,2.466,0.419
	c1.231,0.853,1.074,2.808,0.201,4.025s-2.229,1.981-3.316,3.011c-2.421,2.359-3.327,5.87-2.348,9.105
	c3.826,1.946,7.986,3.95,12.223,3.264c4.237-0.686,7.999-5.447,6.007-9.249c-1.855-3.541-7.426-4.34-8.384-8.221
	c-1.122-4.544,5.31-8.585,3.862-13.035c-0.635-1.949-2.577-3.097-4.068-4.504c-3.604-3.532-4.666-8.915-2.674-13.552
	c-4.927,0.867-9.969-0.711-13.523-4.232c-3.234-3.264-5.815-8.414-10.408-8.267c-4.215,0.134-7.845,5.051-11.786,3.551
	c-0.969-0.369-1.992-1.12-2.931-0.68c-0.624,0.405-1.027,1.074-1.093,1.815c-1.002,4.788,0.721,10.244-1.888,14.382
	c-2.84,4.503-9.409,5.127-12.852,9.187c-1.869,2.204-2.593,5.174-4.311,7.498c-1.718,2.324-5.364,3.801-7.426,1.776
	c2.087-4.289,0.933-9.451-2.78-12.445c-1.914-1.249-3.977-2.252-6.141-2.987c-2.418-1.024-4.718-2.306-6.861-3.824
	c-1.073-0.647-1.945-1.58-2.519-2.695c-0.453-1.396-0.392-2.907,0.172-4.262c2.131-6.108,7.47-10.534,13.867-11.494
	c2.745-0.373,5.94-0.242,7.756-2.333c0.961-1.107,1.465-2.78,2.861-3.229c0.892-0.179,1.819-0.065,2.641,0.325l10.245,3.606
	c1.143,0.516,2.401,0.724,3.65,0.604c1.284-0.173,2.217-1.307,2.14-2.6c-0.327-1.701-2.945-2.518-2.707-4.234
	c0.133-0.556,0.432-1.059,0.858-1.441c7.486-7.968,18.141-12.176,29.051-11.472c1.293,2.124-0.752,4.639-2.454,6.452
	c-1.702,1.813-3.069,5.052-1.011,6.448c0.843,0.43,1.781,0.642,2.728,0.614c2.522,0.341,4.974,1.085,7.261,2.202
	c3.54,1.541,7.013,3.226,10.417,5.057c-0.301-2.245-0.588-4.609,0.263-6.708s3.269-3.745,5.381-2.928
	c2.036,0.788,3.079,3.483,5.248,3.73c2.893,0.329,4.034-3.944,2.826-6.593c-1.208-2.649-3.6-4.867-3.8-7.772
	c-0.135-1.96,0.611-4.39-0.954-5.576c-0.557-0.356-1.189-0.578-1.847-0.648l-39.084-7.192c-2.321-0.427-5.674-0.1-5.777,2.258
	c-0.057,1.316,1.118,2.618,0.597,3.828c-0.556,1.291-2.381,1.173-3.711,1.63c-2.063,0.709-3.098,3.158-2.9,5.331
	c0.363,2.159,1.199,4.21,2.448,6.008C-1051.877,250.625-1055.726,250.429-1058.268,249.366z"/>
<path fill="#3774E4" d="M-1089.453,216.189c-5.049-1.671-10.603-0.007-13.902,4.164c-0.644,0.847-1.184,2.015-0.645,2.933
	c0.772,1.315,2.74,0.796,4.192,0.325c2.133-0.762,4.454-0.817,6.621-0.158c1.363,0.468,2.581,1.295,3.95,1.745
	c1.357,0.568,2.917,0.34,4.056-0.593c0.939-0.958,0.998-2.447,1-3.788c0.132-0.909-0.153-1.829-0.776-2.504
	c-0.548-0.317-1.163-0.499-1.796-0.531c-1.416-0.262-2.696-1.01-3.62-2.115"/>
<path fill="#3774E4" d="M-1075.36,212.265c-1.775-0.097-3.293,1.264-3.39,3.04c-0.028,0.513,0.067,1.026,0.278,1.495
	c1.694,0.462,3.464,0.577,5.203,0.339c1.774-0.275,3.209-1.591,3.637-3.334c-2.048,0.373-4.161-0.031-5.928-1.132"/>
<path fill="#3774E4" d="M-1028.077,205.712c-4.61,0.98-9.089,2.501-13.342,4.532c4.117,1.582,6.715,5.669,6.402,10.068
	c-0.18,0.823-0.159,1.676,0.061,2.489c0.49,1.188,1.91,1.634,3.158,1.939c2.243,0.683,4.585,0.981,6.927,0.884
	c2.38-0.125,4.537-1.442,5.734-3.504c0.339-0.963,0.738-1.904,1.192-2.819c2.992-4.557,11.881,0.953,15.094-3.451
	c1.132-1.552,1.028-3.887,2.503-5.116c0.763-0.536,1.648-0.873,2.574-0.982c6.461-1.284,12.986-2.213,19.548-2.784
	c3.109-0.271,7.162-1.387,7.188-4.508c-11.711-2.3-23.854-0.666-34.541,4.647c-3.85,1.929-8.943,5.985-12.652,3.429
	c-1.389-0.957-1.32-3.535-3.231-4.612C-1023.416,204.823-1026.003,205.271-1028.077,205.712z"/>
<path fill="#3774E4" d="M-989.778,212.874l5.497,1.056c-3.93-0.174-7.258,2.871-7.432,6.802c-0.014,0.306-0.007,0.613,0.019,0.918
	c5.148,1.72,10.761,0.046,16.184,0.275s11.733,4.102,10.807,9.451c-0.28,1.617-1.214,3.233-0.728,4.801
	c0.34,1.099,1.31,1.878,1.856,2.89c1.14,2.109,0.229,4.776-1.21,6.693s-3.374,3.446-4.637,5.483
	c-3.142,5.067-1.357,11.617,0.515,17.277c0.541,2.139,1.54,4.134,2.929,5.849c2.773,2.948,7.292,3.205,11.339,3.264
	c2.945,0.043,6.32-0.103,8.182-2.385c2.432-2.979,0.731-7.628,2.332-11.125c1.454-3.176,5.159-4.538,8.515-5.504
	c6.149-1.77,12.416-3.275,18.229-5.949c7.219-3.32,13.965-8.495,21.899-8.922c2.226-0.12,4.507,0.143,6.651-0.467
	c2.144-0.61,4.181-2.464,4.019-4.687c-0.139-1.9-1.746-3.294-3.002-4.726s-2.242-3.634-1.088-5.149l20.797-3.884
	c-1.474-4.017-2.623-9.309,0.765-11.924c1.222-0.944,2.859-1.321,3.899-2.461c1.774-1.944,0.882-5.293-1.166-6.946
	s-4.816-2.037-7.438-2.255c-9.119-0.757-18.29-0.257-27.427,0.244c-17.86,0.979-35.72,1.958-53.58,2.937
	c-3.595,0.197-7.746-0.104-11.044,1.123c-2.792,1.038-4.776,2.945-7.969,3.614C-977.958,210.401-984.445,209.565-989.778,212.874z"
	/>
<path fill="#3774E4" d="M-891.294,256.327c-0.56-0.089-1.133,0.041-1.6,0.363c-0.309,0.34-0.493,0.775-0.521,1.234
	c-0.355,2.024,0.068,4.107,1.184,5.832c1.158,1.724,3.159,2.683,5.228,2.507c2.475-0.316,4.3-2.427,6.575-3.458
	c3.507-1.587,18.403-4.061,8.099-9.627c-3.551-1.918-5.845-0.225-8.644,1.039C-884.157,255.845-887.725,256.575-891.294,256.327z"/>
<path fill="#3774E4" d="M-801.044,209.731c-1.203,0.492-2.21,1.368-2.862,2.492c-0.625,1.185-0.21,2.652,0.943,3.335
	c0.449,0.163,0.926,0.239,1.404,0.223l4.892,0.146c2.078,0.062,4.674,0.505,5.233,2.508c0.415,1.487-0.513,3.398,0.606,4.461
	c0.481,0.372,1.059,0.598,1.664,0.649c1.612,0.414,3.294,0.468,4.929,0.159c3.56-0.955,1.689-3.127,2.81-5.062
	c1.715-2.96,1.418-1.168,4.441-2.864c2.232-1.253,5.116-3.525,3.253-6.718C-776.97,203.506-796.263,207.346-801.044,209.731z"/>
<path fill="#3774E4" d="M-704.485,206.94l-2.841,0.379c-6.406,0.855-12.848,1.718-19.018,3.641c2.671,1.056,5.473,1.743,8.329,2.044
	c1.572,0.077,3.134,0.299,4.665,0.663c2.725,0.811,5.471,2.906,8.104,1.833c1.632-0.665,2.165-2.365,3.517-3.266
	c0.934-0.622,4.475-1.629,4.871-2.257C-693.656,204.902-702.025,206.611-704.485,206.94z"/>
<path fill="#3774E4" d="M-692.011,219.851c-3.795,2.122-7.315,4.7-10.483,7.677c-1.335,1.255-2.698,2.815-2.577,4.643
	c0.161,2.429,2.749,3.839,4.991,4.788l9.081,3.845c1.102-1.553,0.093-3.696-1.045-5.222s-2.492-3.291-1.989-5.128
	c0.574-2.095,3.129-2.81,5.271-3.171c3.491-0.588,12.907-0.541,11.776-6.167C-678.319,214.488-688.507,217.892-692.011,219.851z"/>
<path fill="#3774E4" d="M-693.837,594.978c-0.865,2.503-0.947,5.451,0.549,7.637c1.678,2.452,5.036,3.366,7.942,2.744
	c2.893-0.77,5.472-2.428,7.374-4.741c1.739-1.938,3.169-4.131,4.241-6.504c1.496-3.697,2.551-7.558,3.144-11.502l2.82-14.804
	c0.63-3.309,0.606-13.452-5.475-10.147c-1.661,0.903-5.508,8.031-7.249,10.053c-3.138,3.643-3.553,7.178-5.205,11.592
	C-687.766,584.833-691.924,589.441-693.837,594.978z"/>
<path fill="#3774E4" d="M-372.655,670.735c-1.99-0.777-3.921-1.696-5.778-2.751c-1.862,5.12-2.853,10.517-2.929,15.965l13.616-7.705
	c2.048-1.159,4.37-2.769,4.326-5.122c0.038-0.592-0.251-1.157-0.753-1.474c-0.303-0.121-0.632-0.16-0.955-0.112
	c-2.019,0.168-3.86,1.162-5.764,1.853s-4.132,1.056-5.879,0.031"/>
<path fill="#3774E4" d="M-300.828,675.309c-1.494,0.407-2.954,0.931-4.366,1.567c-3.125,1.59-5.25,4.609-8.062,6.703
	c-2.691,2.004-5.93,3.104-9.109,4.174c-0.935,0.827-0.506,2.492,0.51,3.218c1.092,0.621,2.344,0.902,3.596,0.808
	c3.303,0.073,6.784,0.105,9.677-1.491c1.63-1.058,3.156-2.268,4.556-3.616c3.383-2.823,7.446-4.685,11.467-6.485
	c1.464-0.553,2.817-1.362,3.997-2.39c2.527-2.49,2.705-6.331-0.939-7.178C-292.446,669.936-298.025,674.402-300.828,675.309z"/>
<path fill="#3774E4" d="M-269.092,654.579c0.332-3.471-0.95-6.902-3.475-9.307c-0.037,3.428-0.141,7.079-2.069,9.914
	c-1.374,2.02-3.527,3.384-5.032,5.307s-2.173,4.973-0.408,6.661c1.128,0.859,2.503,1.332,3.92,1.35
	c3.514,0.414,7.581,0.644,10.045-1.894c1.345-1.386,1.999-3.438,3.64-4.456c0.611-0.257,1.157-0.647,1.597-1.143
	c0.677-1.077-0.399-2.496-1.61-2.884s-2.547-0.206-3.764-0.574s-2.335-1.738-1.71-2.846"/>
<path fill="#3774E4" d="M-325.497,528.908c-1.844,0.448-3.753,0.561-5.636,0.332c-3.128-0.575-5.563-2.933-8.088-4.866
	c-6.004-4.571-13.302-7.121-20.846-7.283c-6.863-0.13-13.789,1.73-20.529,0.433c0.44,2.449,2.536,4.286,4.772,5.378
	s4.704,1.641,6.951,2.711c3.599,1.73,6.453,4.699,8.039,8.363c0.724,1.689,1.179,3.528,2.275,5.003
	c2.241,3.015,6.488,3.677,10.236,3.43c4.887-0.321,9.991-1.727,14.537,0.094c3.478,1.393,5.967,4.437,8.871,6.804
	s6.994,4.124,10.329,2.416c-7.109-2.302-11.896-8.958-11.814-16.43c3.271,0.301,12.69,0.184,12.183-5.373
	C-314.647,525.21-322.689,528.4-325.497,528.908z"/>
<path fill="#3774E4" d="M-368.28,567.225c0.581-3.185,3.757-5.997,2.767-9.08c-0.684-2.132-3.156-3.184-5.394-3.237
	s-4.437,0.614-6.675,0.677c-1.457-0.077-2.917-0.057-4.371,0.062c-4.442,0.73-7.181,5.387-11.367,7.042
	c-2.546,1.007-5.406,0.814-8.053,1.51c-6.01,1.58-9.813,7.259-14.014,11.838c-6.788,7.365-15.631,12.522-25.384,14.804
	c-3.417,0.791-7.09,1.297-9.807,3.517c-3.597,2.939-4.482,7.977-5.282,12.552c-2.211,12.636-5.59,25.039-10.093,37.051l14.27,1.822
	c2.713,0.346,5.524,0.685,8.139-0.118c1.9-0.717,3.699-1.675,5.353-2.852c6.356-3.946,13.469-6.514,20.879-7.537
	c3.737-0.513,7.655-0.607,11.162,0.782s6.516,4.539,6.809,8.3c3.09-0.961,6.459-0.142,8.762,2.131
	c2.235,2.277,3.698,5.198,4.183,8.351c0.376,1.952,0.752,4.292,2.564,5.111c1.478,0.668,3.173-0.051,4.79-0.181
	c5.487-0.439,10.039,5.958,15.432,4.857c5.784-1.181,7.203-9.843,12.846-11.578c3.241-0.996,7.786,0.215,9.338-2.799
	c1.368-2.657-1.361-5.723-1.08-8.698c0.347-3.663,4.667-5.218,7.998-6.781c11.484-5.389,16.934-20.845,11.369-32.245
	c-3.297-6.754-9.785-12.071-10.983-19.491c-0.922-5.709,1.329-12.366-2.311-16.859c-1.852-2.286-4.987-3.548-6.088-6.275
	c-0.693-1.717-0.415-3.665-0.788-5.479s-1.956-3.711-3.747-3.241c-5.199,1.365-6.858,17.425-9.641,21.327
	C-360.927,578.44-369.613,574.533-368.28,567.225z"/>
<path fill="#3774E4" d="M-464.375,534.976c-1.777-0.498-3.717-0.989-5.419-0.277s-2.696,3.211-1.33,4.451
	c10.688-0.416,21.442-0.83,32.04,0.622c12.21,1.672,24.294,5.815,36.558,4.596c-7.005-2.067-14.126-3.719-21.326-4.949
	l-12.006-2.293c-3.221-0.675-6.475-1.177-9.749-1.506C-452.456,535.054-457.64,536.864-464.375,534.976z"/>
<path fill="#3774E4" d="M-453.674,497.75c-0.887-0.074-1.986-0.138-2.445,0.625c-0.439,0.729,0.063,1.692-0.172,2.509
	c-0.322,1.117-1.785,1.402-2.937,1.25s-2.398-0.516-3.419,0.039c-1.063,0.726-1.52,2.068-1.12,3.292
	c0.417,1.183,1.092,2.26,1.976,3.15c1.51,1.902,3.23,3.628,5.128,5.143c3.674,2.712,8.65,4.018,10.964,7.955
	c0.326,0.763,0.828,1.438,1.464,1.971c1.111,0.704,2.559,0.168,3.755-0.378l4.192-1.915c0.755-0.272,1.429-0.73,1.96-1.333
	c0.958-1.299,0.369-3.147-0.434-4.547s-1.833-2.849-1.66-4.454c0.308-2.862,3.987-3.956,5.5-6.405
	c1.525-2.468,0.532-5.648,0.708-8.544c0.206-3.387,2.334-7.792-1.09-10.323c-2.91-2.151-5.691-0.163-7.78,2.211
	C-443.492,493.004-445.575,498.426-453.674,497.75z"/>
<path fill="#3774E4" d="M-428.229,447.147c1.431,2.74,4.415,4.376,5.975,7.044c1.692,2.893,1.499,6.63,3.334,9.434
	c1.883,2.877,5.672,4.404,6.728,7.675c1.153,3.572-1.463,7.913,0.622,11.034c1.551,2.035,4.457,2.427,6.492,0.876
	c0.104-0.08,0.206-0.164,0.303-0.252c1.828-1.99,1.737-5.075-0.206-6.954c-1.234-1.126-3.007-1.612-4.038-2.927
	c-0.537-0.759-0.894-1.629-1.046-2.546c-0.562-2.645-0.472-5.387,0.262-7.989c0.276-0.66,0.346-1.389,0.201-2.09
	c-0.464-1.349-2.29-1.444-3.572-2.07c-2.911-1.421-2.841-5.53-2.332-8.729c-0.339,2.13-7.926-1.493-8.72-2.699
	c-1.578-2.397-0.719-7.02-1.032-9.669C-428.664,438.928-429.979,443.797-428.229,447.147z"/>
<path fill="#3774E4" d="M-504.666,489.309c-1.4-1.568-3.51-3.208-5.387-2.262c-1.432,0.721-1.826,2.703-1.265,4.205
	c0.684,1.459,1.737,2.715,3.055,3.642c3.913,3.227,8.126,6.139,11.539,9.89c6.108,6.713,9.344,15.77,15.987,21.954
	c1.335,1.434,3.103,2.391,5.034,2.724c1.935,0.18,4.109-1.059,4.331-2.99c0.183-1.591-0.926-3.014-2.009-4.193
	c-2.581-2.807-5.406-5.391-7.842-8.323c-1.125-1.127-1.832-2.603-2.004-4.186c-0.012-1.579,1.428-3.232,2.958-2.841
	c-1.861-0.476-3.241-3.576-5.972-4.159c-2.282-0.487-2.835,0.926-5.551-0.239C-496.973,500.31-501.037,493.37-504.666,489.309z"/>
<path fill="#3774E4" d="M-382.933,336.662c-1.486-0.442-2.947-0.964-4.377-1.563c-3.847-1.155-8.936,1.673-8.423,5.656
	c0.341,2.647,2.804,4.431,4.164,6.727c2.017,3.404,1.479,7.722,0.419,11.535c-0.26,1.18-0.755,2.297-1.455,3.282
	c-0.979,1.04-2.149,1.882-3.447,2.48c-5.195,2.913-9.776,6.805-13.49,11.46c-0.404,0.43-0.685,0.96-0.815,1.536
	c-0.183,1.345,1.168,2.325,1.933,3.446c1.698,2.492,0.471,5.845,0.638,8.855c-0.052,0.865,0.347,1.696,1.055,2.197
	c1.023,0.52,2.236-0.363,2.791-1.368c1.841-3.335,0.454-8.687,3.907-10.295c0.653-0.304,1.445-0.432,1.881-1.006
	c0.691-0.91,0.024-2.258,0.375-3.346c0.526-1.633,2.76-1.707,4.475-1.634c2.953,0.124,5.906-0.27,8.724-1.161
	c1.106-0.263,2.11-0.844,2.888-1.672c1.032-1.288,0.941-3.12,0.734-4.758c-1.033-8.165-3.619-16.057-7.62-23.25
	c3.033,0.387,6.333,0.723,8.95-0.858c1.466-0.885,3.223-3.532,2.496-5.334C-378.279,334.741-380.356,337.139-382.933,336.662z"/>
<path fill="#3774E4" d="M-771.782,381.569c0.363,1.947,0.72,3.997,0.082,5.871s-2.645,3.441-4.54,2.867
	c-1.471-0.446-2.32-1.925-3.365-3.052c-5.808-6.27-18.912-2.64-22.5-10.397c-1.464-3.166-0.469-6.959-1.468-10.301
	c-1.296-3.973-5.114-6.567-9.285-6.308c-1.85,0.267-3.65,0.805-5.343,1.595c-11.344,4.543-23.254,7.522-35.401,8.854
	c-2.309,0.141-4.592,0.556-6.802,1.238c-4.988,1.808-8.396,6.432-10.821,11.151c-2.425,4.719-4.216,9.827-7.468,14.019
	c-3.417,4.406-8.206,7.491-12.673,10.828c-1.721,1.109-3.154,2.611-4.181,4.382c-0.968,1.988-0.914,4.301-0.839,6.511l0.913,26.844
	c0.117,3.453,0.265,7.029,1.81,10.119c1.93,3.858,5.742,6.386,8.386,9.794c2.699,3.503,4.105,7.83,3.98,12.251
	c-0.056,1.777-0.233,3.879,1.151,4.995c0.842,0.546,1.827,0.829,2.83,0.814l36.312,2.972c6.387,0.523,13.466,1.382,17.637,6.249
	c1.968,2.297,3.549,5.6,6.564,5.846c1.293,0.106,2.551-0.425,3.845-0.528c3.263-0.258,6.13,2.218,7.939,4.946
	c2.738,4.158,3.981,9.123,3.525,14.08c-0.297,3.112-1.261,6.137-1.469,9.256c-0.791,11.868,9.269,22.179,9.464,34.071
	c0.115,6.995-3.206,13.531-6.444,19.733c5.225,7.916,0.947,18.457,3.027,27.711c1.974,8.78,9.294,15.653,11.118,24.465
	c0.835,4.034,0.883,8.998,4.441,11.076c1.561,0.761,3.291,1.107,5.025,1.006c10.456,0.124,20.793-2.229,30.165-6.867
	c4.399-2.183,8.957-5.441,9.725-10.291c0.62-3.911-1.364-8.286,0.655-11.693c2.379-4.015,8.474-3.697,11.974-6.784
	c5.679-5.008,1.251-14.56,3.551-21.773c2.068-6.484,9.187-9.929,12.716-15.748c1.389-2.503,2.385-5.204,2.955-8.009
	c1.617-6.704,2.623-13.541,3.007-20.426c0.094-4.184,0.402-8.359,0.924-12.511c3.805-23.638,27.173-39.466,34.76-62.174
	c0.725-2.169,1.065-5.057-0.864-6.284c-1.144-0.546-2.442-0.682-3.674-0.385l-16.739,2.11c-2.079,0.262-4.283,0.507-6.192-0.356
	s-3.278-3.279-2.265-5.114c2.843-5.15-3.005-11.657-5.603-16.935c-6.997-14.21-15.329-27.724-24.885-40.357
	c-0.612-0.65-0.995-1.482-1.091-2.369l4.751,0.158c-1.604-5.754-4.25-12.051-9.841-14.156c-3.15-1.186-6.639-0.776-10-0.592
	C-751.933,384.496-762.254,383.042-771.782,381.569z"/>
<path fill="#3774E4" d="M-742.298,251.893c2.519,2.675,5.342,5.512,8.987,5.978c6.438,0.824,11.067-5.834,14.014-11.617
	c0.227,3.065,2.853,5.393,5.923,5.251c1.589-0.267,3.106-0.86,4.455-1.742c12.756-6.971,27.043-10.664,41.579-10.748
	c-0.289-2.281,1.191-4.411,3.429-4.936c2.955-0.586,5.618,1.969,7.043,4.624s2.315,5.731,4.58,7.718s6.65,1.9,7.545-0.977
	c0.859-2.762-2.019-5.118-4.409-6.746s-4.91-4.642-3.301-7.046c12.213-2.704,24.502-5.417,37-5.955
	c2.128,0.074,4.248-0.291,6.228-1.073c1.906-0.935,3.421-3.058,2.908-5.119c-5.578,1.311-11.396-0.883-14.718-5.552
	c17.341-1.431,35.785-2.651,51.153,5.509c1.844,3.959-7.555,7.253-5.04,10.824c0.802,1.139,2.409,1.272,3.802,1.298
	c10.68,0.198,21.421,0.393,31.98-1.22c3.859-0.589,7.756-1.421,11.63-0.943c6.453,0.796,11.972,5.101,18.32,6.505
	c2.584,0.571,5.481,0.591,7.659-0.912s3.114-4.925,1.329-6.878c5.977-5.858,15.897-4.406,23.783-1.602s15.355,7.327,23.701,7.953
	c5.985,0.448,12.053-1.162,17.966-0.138c3.716,0.643,7.175,2.296,10.807,3.312c6.869,1.921,14.136,1.515,21.268,1.608
	c18.198,0.245,36.197,3.822,53.106,10.553c2.2,0.716,4.215,1.907,5.904,3.488c1.573,1.685,2.376,4.303,1.318,6.351l-17.473-2.553
	c1.646,3.241,5.905,3.793,9.364,4.911s7.045,4.938,4.966,7.92c-3.748-1.193-7.144,2.554-9.037,6.001s-4.2,7.576-8.127,7.786
	c-3.517,0.188-7.77-2.806-10.062-0.133c3.167,3.995,5.879,8.331,8.086,12.927c2.265,4.718,3.878,10.663,0.817,14.908
	c-0.482,0.758-1.212,1.324-2.066,1.602c-2.5,0.633-4.124-2.425-5.917-4.279c-2.259-2.336-5.676-2.997-8.735-4.093
	s-6.282-3.25-6.521-6.491c-0.149-2.016,0.916-3.891,1.7-5.754c1.318-3.141,1.894-6.544,1.684-9.944
	c-0.172-2.735-0.939-5.581-2.903-7.492s-5.356-2.517-7.465-0.767c-0.984,0.817-1.773,2.123-3.05,2.172
	c-2.258,0.086-3.991-3.85-5.808-2.506c0.213,1.432-0.084,2.893-0.839,4.128c-5.421,4.714-13.748,2.72-20.736,4.385
	c-3.323,0.951-6.505,2.34-9.461,4.132c-1.106,0.473-2.047,1.263-2.704,2.27c-0.872,1.695,0.089,3.866,1.627,4.993
	c1.631,1,3.463,1.625,5.365,1.831c8.519,1.614,17.163,4.111,23.889,9.583s11.137,14.518,9.009,22.924l-16.801-16.054
	c0.638,6.741,1,13.5,1.086,20.277c0.109,1.323-0.073,2.655-0.533,3.9c-1.198,2.645-4.444,3.536-7.289,4.12
	c-3.098,0.589-5.132,3.577-4.543,6.675c0.041,0.216,0.095,0.43,0.16,0.64c1.011,3.294,3.531,5.863,5.838,8.422s4.578,5.468,4.88,8.9
	s-2.288,7.302-5.725,7.063c-2.606-0.181-4.539-2.514-5.651-4.878s-1.773-4.997-3.443-7.006c-5.055-6.08-16.409-3.475-20.937-9.956
	c-2.347,2.662-3.148,6.35-2.118,9.746c2.107-1.319,4.991-0.093,6.574,1.823s2.33,4.373,3.573,6.525
	c1.677,2.904,4.347,5.479,4.581,8.825c-0.062,1.265-0.041,2.533,0.064,3.795c0.416,2.027,2.129,3.483,3.317,5.177
	c2.764,3.943,2.628,9.359,0.846,13.833s-4.983,8.212-8.153,11.836c-5.538,6.33-11.189,12.623-17.754,17.88
	c-1.873,1.5-3.873,2.975-5.039,5.072s-1.227,5.041,0.566,6.636c-1.283,0.064-3.584,0.695-4.866,0.759
	c-0.451-5.146-0.549-10.317-0.293-15.477c-5.063-2.431-10.514,4.079-9.86,9.657s4.688,10.054,7.56,14.88
	c2.1,3.529,3.662,7.644,2.96,11.69s-4.313,7.779-8.405,7.423c-6.508-0.568-9.23-9.91-15.674-10.979
	c-0.568-0.133-1.165-0.074-1.696,0.168c-0.957,0.525-1.123,1.805-1.177,2.895c-0.264,5.349-0.492,10.911,1.596,15.843
	c3.055,7.215,10.946,13.275,9.291,20.933c-8.918-4.145-13.555-14.146-15.66-23.752s-2.456-19.691-6.23-28.772
	c-2.865,3.673-8.888,0.637-11.507-3.216c-2.482-3.653-4.01-7.878-6.419-11.581s-6.097-7.017-10.509-7.221
	c-4.625-0.213-8.637,2.961-12.165,5.96c-2.901,2.466-5.879,5.029-7.575,8.439c-2.468,4.961-1.822,10.809-1.941,16.349
	c-0.129,5.989-1.398,12.307-5.479,16.691s-11.615,5.911-16.117,1.96c-2.35-2.063-3.488-5.145-4.502-8.103
	c-4.886-14.26-8.956-28.787-12.188-43.511c-0.756,3.361-3.707,7.692-6.526,5.712c-0.633-0.532-1.145-1.192-1.504-1.937
	c-5.258-8.912-14.996-14.258-24.835-17.463s-20.191-4.7-29.92-8.223c-5.453-1.975-10.66-4.569-15.521-7.731
	c-2.524,3.709-2.811,8.504-0.746,12.487c2.158,3.822,7.042,6.033,11.223,4.697c2.16-0.69,3.985-2.19,6.129-2.931
	s5.021-0.377,5.958,1.688c0.897,1.977-0.459,4.368,0.214,6.432c1.025,3.144,5.766,3.386,7.424,6.247
	c1.234,2.128,0.219,4.955-1.543,6.672s-4.111,2.66-6.261,3.855c-6.976,3.879-11.937,10.501-18.034,15.654
	s-14.699,8.914-21.965,5.609c1.732-8.77-8.715-15.209-10.637-23.939c-0.633-2.874-0.305-5.926-1.208-8.726
	c-1.308-4.054-4.905-6.842-7.856-9.915c-7.231-7.611-11.08-17.82-10.673-28.31c0.159-3.608,0.822-7.275,0-10.792
	s-3.734-6.921-7.342-6.762c-8.241,0.364-18.623,0.977-22.947-6.048c-1.543-2.507-2.215-6.18,0.016-8.1
	c1.574-1.355,3.897-1.227,5.964-1.024l18.568,1.827c4.343,0.427,9.037,0.78,12.764-1.491s5.341-8.297,1.891-10.968
	c-2.521-1.952-7.039-1.846-7.772-4.949c-0.61-2.584,2.25-5.517,0.705-7.677c-1.108-1.549-3.598-1.119-5.108,0.042
	s-2.604,2.859-4.293,3.738c-2.963,1.542-6.503,0.074-9.691-0.923s-7.461-1.082-9.007,1.879c-1.729,3.311,1.534,7.65-0.182,10.968
	c-2.269,4.387-9.953,1.889-13.139,5.663c-3.656,4.33,2.488,10.786,1.255,16.318c-3.202,1.586-7.003,1.373-10.007-0.562
	c-2.96-2.013-4.574-5.49-4.201-9.051c0.305-2.488,1.603-5.028,0.733-7.38c-0.703-1.901-2.612-3.033-4.386-4.013l-18.044-9.971
	c-1.675,3.108,0.443,6.961,3.091,9.295s5.966,4.092,7.707,7.164c2.285,4.418,0.734,9.851-3.539,12.398
	c-0.522,0.36-1.175,0.474-1.789,0.312c-0.582-0.342-1-0.904-1.16-1.56c-3.184-8.147-7.964-16.18-15.606-20.436
	s-18.623-3.381-23.634,3.789c-1.19,1.703-1.989,3.644-3.026,5.444c-5.509,9.565-17.319,14.095-28.354,13.799
	c-1.079,0.06-2.153-0.193-3.093-0.727c-1.783-1.232-1.703-3.845-1.43-5.995l1.158-9.124c0.233-1.832,0.57-3.857,2.02-5.001
	c2.044-1.612,4.993-0.595,7.596-0.632c4.04-0.189,7.531-2.883,8.738-6.744c1.072-3.878-0.091-8.031-3.02-10.789
	c-1.193-1.121-2.795-2.528-2.164-4.039c0.509-0.846,1.366-1.423,2.342-1.577c4.676-1.358,9.617-1.714,14.215-3.316
	s9.057-4.88,10.146-9.626c0.334-1.454,0.486-3.216,1.792-3.937c0.656-0.277,1.359-0.421,2.071-0.423
	c5.167-0.735,8.918-5.294,8.644-10.506c2.204-1.54,5.291-0.407,7.423,1.231s4.014,3.801,6.608,4.507
	c4.834,1.316,9.506-2.964,14.516-2.984c2.107-0.008,4.288,0.737,6.27,0.022c2.009-0.724,3.209-2.724,4.751-4.202
	s4.248-2.379,5.672-0.787l-1.213-8.982c4.941,1.248,10.18,0.301,14.371-2.598l-15.672-5.295c-0.546-0.136-1.049-0.405-1.466-0.784
	c-1.139-1.227-0.008-3.139,0.919-4.533c2.216-3.336,2.589-8.832-1.056-10.493c-2.488-1.134-5.344,0.227-7.732,1.559l-11.439,6.378
	c-0.364,2.174,2.295,3.407,3.943,4.871c2.729,2.426,2.975,6.604,0.549,9.333c-1.236,1.39-3,2.196-4.86,2.218
	c1.526,1.984,2.067,4.553,1.471,6.984l-7.696,0.553c-0.864,0.174-1.761-0.001-2.496-0.487c-0.823-0.731-0.711-2.012-0.902-3.096
	c-0.46-2.617-3.023-4.451-5.638-4.921s-5.291,0.133-7.88,0.728c-1.1,0.396-2.307,0.368-3.387-0.078
	c-0.619-0.402-1.09-0.996-1.34-1.691c-1.135-2.753-0.074-5.988,1.749-8.342s4.32-4.075,6.561-6.035
	c5.361-4.704,9.3-10.813,11.371-17.638c4.237-1.775,8.623-4.187,12.86-5.962c6.532-3.307,13.857-4.726,21.151-4.098l14.348,0.274
	c4.248,0.081,8.611,0.185,12.539,1.805s7.38,5.122,7.651,9.362c0.166,0.976-0.181,1.969-0.92,2.627
	c-0.555,0.303-1.183,0.444-1.814,0.409C-736.647,250.767-738.336,251.754-742.298,251.893z"/>
<path fill="#3774E4" d="M-856.661,296.861c1.143-1.082,1.585-2.712,1.145-4.223c-2.782-1.074-5.933-0.479-8.132,1.536
	c-0.85,0.86-1.583,1.828-2.179,2.88c-1.885,3.076-3.553,6.75-2.46,10.189c0.18,0.758,0.657,1.411,1.325,1.812
	c0.49,0.197,1.018,0.279,1.544,0.242c2.077-0.003,4.152-0.13,6.214-0.382c1.266-0.155,2.737-0.512,3.226-1.69
	c0.643-1.548-0.914-3.301-0.46-4.915c0.299-0.722,0.751-1.37,1.326-1.899c0.578-0.54,0.868-1.321,0.782-2.107
	c-0.183-0.757-1.343-1.187-1.76-0.529"/>
<path fill="#3774E4" d="M-845.891,282.897c-1.845-0.424-3.747-0.543-5.631-0.354c-0.417-0.012-0.829,0.081-1.2,0.273
	c-0.359,0.265-0.619,0.641-0.739,1.071c-0.825,2.648,0.523,5.485,3.097,6.519c0.676,0.156,1.324,0.416,1.92,0.772
	c1.593,1.236,0.577,3.761,0.879,5.754c0.339,2.238,2.505,4.116,2.108,6.345c-0.313,1.755-2.188,3.146-1.886,4.903
	c0.316,1.841,2.652,2.394,4.514,2.541c1.079,0.189,2.19,0.062,3.198-0.367c1.011-0.691,1.729-1.732,2.018-2.922
	c0.762-2.269,1.083-4.663,0.944-7.052c-0.008-1.087-0.281-2.155-0.795-3.113c-0.561-0.759-1.182-1.47-1.858-2.128
	C-842.891,290.99-839.135,284.801-845.891,282.897z"/>
<path opacity="0.8" fill="none" stroke="#FFA426" stroke-width="2" stroke-miterlimit="10" enable-background="new    " d="
	M-376.829,607.933c0,0-273.201-156.823-390.818-127.109c0,0-249.265,26.825-278.154,85.84c0,0-79.237-247.615-108.125-255.868"/>
<path opacity="0.8" fill="none" stroke="#FFA426" stroke-width="2" stroke-miterlimit="10" enable-background="new    " d="
	M-1045.802,566.664c45.809-122.157,458.5-257.519,458.5-257.519c-58.602,14.857-180.346,171.679-180.346,171.679
	s-257.519-187.362-386.279-170.029c0,0,567.037,18.571,777.097,297.138"/>
<circle fill="#FFA426" cx="-1153.927" cy="310.795" r="11.968"/>
<circle fill="#FFA426" cx="-1045.801" cy="566.664" r="11.968"/>
<circle fill="#FFA426" cx="-587.302" cy="309.145" r="11.968"/>
<circle fill="#FFA426" cx="-376.829" cy="607.933" r="11.968"/>
<circle fill="#FFA426" cx="-767.648" cy="480.824" r="11.968"/>
</svg>
